<svg xmlns="http://www.w3.org/2000/svg" xmlns:xlink="http://www.w3.org/1999/xlink" width="500" zoomAndPan="magnify" viewBox="0 0 375 374.999991" height="500" preserveAspectRatio="xMidYMid meet" version="1.0"><defs><g/><clipPath id="97cb354e3e"><path d="M 134.132812 150.132812 L 144.566406 150.132812 L 144.566406 224.867188 L 134.132812 224.867188 Z M 134.132812 150.132812 " clip-rule="nonzero"/></clipPath></defs><g clip-path="url(#97cb354e3e)"><path fill="#0cc0df" d="M 134.132812 150.132812 L 144.566406 150.132812 L 144.566406 224.875 L 134.132812 224.875 Z M 134.132812 150.132812 " fill-opacity="1" fill-rule="nonzero"/></g><g fill="#000000" fill-opacity="1"><g transform="translate(139.35102, 185.395893)"><g><path d="M 7.875 0 L 3.125 0 L 3.125 -24.046875 L 7.875 -24.046875 Z M 7.875 0 "/></g></g></g><g fill="#000000" fill-opacity="1"><g transform="translate(148.515232, 185.395893)"><g><path d="M 2.609375 0 L 2.609375 -18.140625 L 6.984375 -18.140625 L 6.984375 -15.484375 L 7.34375 -15.390625 C 8.46875 -17.453125 10.296875 -18.484375 12.828125 -18.484375 C 14.921875 -18.484375 16.457031 -17.910156 17.4375 -16.765625 C 18.425781 -15.628906 18.921875 -13.972656 18.921875 -11.796875 L 18.921875 0 L 14.359375 0 L 14.359375 -11.234375 C 14.359375 -12.441406 14.113281 -13.3125 13.625 -13.84375 C 13.144531 -14.375 12.375 -14.640625 11.3125 -14.640625 C 10.007812 -14.640625 8.992188 -14.21875 8.265625 -13.375 C 7.535156 -12.53125 7.171875 -11.203125 7.171875 -9.390625 L 7.171875 0 Z M 2.609375 0 "/></g></g></g><g fill="#000000" fill-opacity="1"><g transform="translate(139.35102, 214.151715)"><g><path d="M 12.484375 0 L 7.0625 0 L 0.34375 -18.140625 L 5.109375 -18.140625 L 9.625 -5.21875 L 10 -5.21875 L 14.53125 -18.140625 L 19.171875 -18.140625 Z M 12.484375 0 "/></g></g></g><g fill="#000000" fill-opacity="1"><g transform="translate(157.000084, 214.151715)"><g><path d="M 4.890625 -20.3125 C 4.066406 -20.3125 3.394531 -20.5625 2.875 -21.0625 C 2.363281 -21.5625 2.109375 -22.207031 2.109375 -23 C 2.109375 -23.769531 2.363281 -24.40625 2.875 -24.90625 C 3.394531 -25.40625 4.066406 -25.65625 4.890625 -25.65625 C 5.429688 -25.65625 5.914062 -25.539062 6.34375 -25.3125 C 6.769531 -25.082031 7.101562 -24.765625 7.34375 -24.359375 C 7.582031 -23.960938 7.703125 -23.507812 7.703125 -23 C 7.703125 -22.476562 7.582031 -22.015625 7.34375 -21.609375 C 7.101562 -21.203125 6.769531 -20.882812 6.34375 -20.65625 C 5.914062 -20.425781 5.429688 -20.3125 4.890625 -20.3125 Z M 2.609375 0 L 2.609375 -18.140625 L 7.171875 -18.140625 L 7.171875 0 Z M 2.609375 0 "/></g></g></g><g fill="#000000" fill-opacity="1"><g transform="translate(164.914589, 214.151715)"><g><path d="M 8.484375 0.34375 C 7.242188 0.34375 6.109375 0.195312 5.078125 -0.09375 C 4.046875 -0.382812 3.164062 -0.785156 2.4375 -1.296875 C 1.707031 -1.804688 1.171875 -2.390625 0.828125 -3.046875 L 3.359375 -5.78125 L 3.703125 -5.78125 C 4.304688 -4.96875 5.019531 -4.359375 5.84375 -3.953125 C 6.664062 -3.546875 7.554688 -3.34375 8.515625 -3.34375 C 9.410156 -3.34375 10.082031 -3.5 10.53125 -3.8125 C 10.976562 -4.132812 11.203125 -4.59375 11.203125 -5.1875 C 11.203125 -5.644531 11.039062 -6.03125 10.71875 -6.34375 C 10.394531 -6.65625 9.867188 -6.898438 9.140625 -7.078125 L 6.75 -7.65625 C 4.945312 -8.082031 3.628906 -8.734375 2.796875 -9.609375 C 1.972656 -10.492188 1.5625 -11.617188 1.5625 -12.984375 C 1.5625 -14.109375 1.847656 -15.085938 2.421875 -15.921875 C 3.003906 -16.753906 3.816406 -17.390625 4.859375 -17.828125 C 5.910156 -18.265625 7.128906 -18.484375 8.515625 -18.484375 C 10.148438 -18.484375 11.503906 -18.25 12.578125 -17.78125 C 13.660156 -17.3125 14.5 -16.679688 15.09375 -15.890625 L 12.671875 -13.265625 L 12.34375 -13.265625 C 11.832031 -13.828125 11.257812 -14.238281 10.625 -14.5 C 10 -14.769531 9.296875 -14.90625 8.515625 -14.90625 C 6.722656 -14.90625 5.828125 -14.34375 5.828125 -13.21875 C 5.828125 -12.75 5.992188 -12.363281 6.328125 -12.0625 C 6.660156 -11.769531 7.25 -11.53125 8.09375 -11.34375 L 10.328125 -10.859375 C 12.171875 -10.460938 13.515625 -9.828125 14.359375 -8.953125 C 15.210938 -8.085938 15.640625 -6.914062 15.640625 -5.4375 C 15.640625 -4.289062 15.351562 -3.273438 14.78125 -2.390625 C 14.21875 -1.515625 13.394531 -0.835938 12.3125 -0.359375 C 11.238281 0.109375 9.960938 0.34375 8.484375 0.34375 Z M 8.484375 0.34375 "/></g></g></g><g fill="#000000" fill-opacity="1"><g transform="translate(179.784706, 214.151715)"><g><path d="M 4.890625 -20.3125 C 4.066406 -20.3125 3.394531 -20.5625 2.875 -21.0625 C 2.363281 -21.5625 2.109375 -22.207031 2.109375 -23 C 2.109375 -23.769531 2.363281 -24.40625 2.875 -24.90625 C 3.394531 -25.40625 4.066406 -25.65625 4.890625 -25.65625 C 5.429688 -25.65625 5.914062 -25.539062 6.34375 -25.3125 C 6.769531 -25.082031 7.101562 -24.765625 7.34375 -24.359375 C 7.582031 -23.960938 7.703125 -23.507812 7.703125 -23 C 7.703125 -22.476562 7.582031 -22.015625 7.34375 -21.609375 C 7.101562 -21.203125 6.769531 -20.882812 6.34375 -20.65625 C 5.914062 -20.425781 5.429688 -20.3125 4.890625 -20.3125 Z M 2.609375 0 L 2.609375 -18.140625 L 7.171875 -18.140625 L 7.171875 0 Z M 2.609375 0 "/></g></g></g><g fill="#000000" fill-opacity="1"><g transform="translate(187.699209, 214.151715)"><g><path d="M 10.546875 0.34375 C 8.765625 0.34375 7.203125 -0.0195312 5.859375 -0.75 C 4.515625 -1.476562 3.472656 -2.546875 2.734375 -3.953125 C 1.992188 -5.359375 1.625 -7.0625 1.625 -9.0625 C 1.625 -11.0625 1.992188 -12.765625 2.734375 -14.171875 C 3.472656 -15.585938 4.515625 -16.660156 5.859375 -17.390625 C 7.203125 -18.117188 8.765625 -18.484375 10.546875 -18.484375 C 12.316406 -18.484375 13.875 -18.117188 15.21875 -17.390625 C 16.5625 -16.660156 17.601562 -15.585938 18.34375 -14.171875 C 19.09375 -12.765625 19.46875 -11.0625 19.46875 -9.0625 C 19.46875 -7.0625 19.09375 -5.359375 18.34375 -3.953125 C 17.601562 -2.546875 16.5625 -1.476562 15.21875 -0.75 C 13.875 -0.0195312 12.316406 0.34375 10.546875 0.34375 Z M 10.546875 -3.515625 C 13.359375 -3.515625 14.765625 -5.363281 14.765625 -9.0625 C 14.765625 -10.976562 14.398438 -12.382812 13.671875 -13.28125 C 12.953125 -14.175781 11.910156 -14.625 10.546875 -14.625 C 7.722656 -14.625 6.3125 -12.769531 6.3125 -9.0625 C 6.3125 -5.363281 7.722656 -3.515625 10.546875 -3.515625 Z M 10.546875 -3.515625 "/></g></g></g><g fill="#000000" fill-opacity="1"><g transform="translate(206.926849, 214.151715)"><g><path d="M 2.609375 0 L 2.609375 -18.140625 L 6.984375 -18.140625 L 6.984375 -15.484375 L 7.34375 -15.390625 C 8.46875 -17.453125 10.296875 -18.484375 12.828125 -18.484375 C 14.921875 -18.484375 16.457031 -17.910156 17.4375 -16.765625 C 18.425781 -15.628906 18.921875 -13.972656 18.921875 -11.796875 L 18.921875 0 L 14.359375 0 L 14.359375 -11.234375 C 14.359375 -12.441406 14.113281 -13.3125 13.625 -13.84375 C 13.144531 -14.375 12.375 -14.640625 11.3125 -14.640625 C 10.007812 -14.640625 8.992188 -14.21875 8.265625 -13.375 C 7.535156 -12.53125 7.171875 -11.203125 7.171875 -9.390625 L 7.171875 0 Z M 2.609375 0 "/></g></g></g></svg>